# xmcd
#
# Track frame offsets:
#	150
#	17410
#	37597
#	49832
#	59885
#	78210
#	98922
#	115520
#	137502
#	155502
#	172840
#	186725
#	208155
#	229290
#
# Disc length: 3214 seconds
#
# Revision: 1
# Processed by: cddbd v1.4PL0 Copyright (c) Steve Scherf et al.
# Submitted via: audiograbber 1.81.02
#
DISCID=b40c8c0e
DTITLE=Felsons - Glad
DYEAR=1998
DGENRE=Country
TTITLE0=Boomerang Boy
TTITLE1=Heart Is Home
TTITLE2=Missing You
TTITLE3=Postcards
TTITLE4=Born To Lose You
TTITLE5=Is There A Dreamer Here?
TTITLE6=Joseph Black
TTITLE7=You're Everything
TTITLE8=Wake Me Up
TTITLE9=Is It Yesterday Yet?
TTITLE10=What About Me?
TTITLE11=Belfast Blues
TTITLE12=On Fire
TTITLE13=Meet Me After The Show
EXTD=
EXTT0=
EXTT1=
EXTT2=
EXTT3=
EXTT4=
EXTT5=
EXTT6=
EXTT7=
EXTT8=
EXTT9=
EXTT10=
EXTT11=
EXTT12=
EXTT13=
PLAYORDER=
